<svg width="269" height="50" viewBox="0 0 269 50" fill="none" xmlns="http://www.w3.org/2000/svg">
<path d="M67.1347 37.6584V17.279H72.6893V37.6584H67.1347ZM69.912 14.6143C68.2231 14.6143 66.8719 13.3382 66.8719 11.7994C66.8719 10.2231 68.2231 8.94709 69.912 8.94709C71.5633 8.94709 72.9144 10.2231 72.9144 11.7994C72.9144 13.3382 71.5633 14.6143 69.912 14.6143ZM81.0227 25.8736V37.6584H75.4681V17.279H80.7599V20.8444H80.9851C81.9234 18.48 84.1002 17.0163 87.1027 17.0163C91.3437 17.0163 94.1585 19.9062 94.121 24.6726V37.6584H88.6039V25.6484C88.6039 23.1338 87.2153 21.6326 84.9259 21.6326C82.599 21.6326 81.0227 23.1714 81.0227 25.8736ZM107.634 17.279V21.4449H103.806V31.3907C103.806 33.0045 104.594 33.4174 105.72 33.4549C106.283 33.4549 107.258 33.4174 107.934 33.3423V37.7334C107.333 37.846 106.358 37.9211 104.969 37.9211C100.953 37.9211 98.2134 36.1196 98.2509 32.1788V21.4449H95.4361V17.279H98.2509V12.3999H103.806V17.279H107.634ZM118.594 38.0712C112.364 38.0712 108.536 34.0178 108.536 27.5625C108.536 21.2573 112.402 17.0163 118.369 17.0163C123.736 17.0163 127.94 20.3941 127.94 27.3373V28.9136H114.015C114.015 31.9912 115.855 33.9053 118.707 33.9053C120.583 33.9053 121.935 33.0796 122.498 31.841H127.789C127.001 35.5942 123.623 38.0712 118.594 38.0712ZM114.015 25.4232H122.685C122.685 22.9462 120.959 21.1822 118.482 21.1822C115.93 21.1822 114.109 23.0775 114.015 25.4232ZM135.447 10.4859V37.6584H129.893V10.4859H135.447ZM143.781 10.4859V37.6584H138.226V10.4859H143.781ZM146.559 37.6584V17.279H152.114V37.6584H146.559ZM149.337 14.6143C147.648 14.6143 146.297 13.3382 146.297 11.7994C146.297 10.2231 147.648 8.94709 149.337 8.94709C150.988 8.94709 152.339 10.2231 152.339 11.7994C152.339 13.3382 150.988 14.6143 149.337 14.6143ZM164.576 37.6584H155.005V10.4859H164.688C172.87 10.4859 177.862 15.5901 177.862 24.0346C177.862 32.5541 172.87 37.6584 164.576 37.6584ZM160.635 32.8169H164.351C169.53 32.8169 172.232 30.1146 172.232 24.0346C172.232 17.9921 169.53 15.3274 164.388 15.3274H160.635V32.8169ZM205.299 24.0721C205.299 32.9294 199.782 38.0337 192.613 38.0337C185.37 38.0337 179.89 32.8919 179.89 24.0721C179.89 15.2148 185.37 10.1105 192.613 10.1105C199.782 10.1105 205.299 15.2148 205.299 24.0721ZM199.556 24.0721C199.556 18.2548 196.817 15.1022 192.613 15.1022C188.41 15.1022 185.632 18.2548 185.632 24.0721C185.632 29.8894 188.41 33.042 192.613 33.042C196.817 33.042 199.556 29.8894 199.556 24.0721ZM225.98 19.9437C225.529 16.9412 223.202 15.1022 220.05 15.1022C215.809 15.1022 213.031 18.3674 213.031 24.0721C213.031 29.927 215.846 33.042 220.012 33.042C223.127 33.042 225.417 31.3156 225.98 28.3882L231.684 28.4257C231.046 33.4549 226.843 38.0337 219.937 38.0337C212.656 38.0337 207.289 32.9294 207.289 24.0721C207.289 15.2148 212.769 10.1105 219.937 10.1105C226.205 10.1105 230.934 13.7135 231.684 19.9437H225.98ZM248.838 18.2548C248.612 16.1155 246.886 14.8395 244.146 14.8395C241.294 14.8395 239.718 16.1531 239.68 17.9545C239.643 19.9062 241.707 20.8069 244.034 21.3323L246.473 21.9328C251.127 22.9837 254.617 25.3482 254.617 29.8894C254.617 34.8811 250.714 38.0337 244.109 38.0337C237.541 38.0337 233.337 34.9937 233.187 29.1763H238.667C238.854 31.9161 241.031 33.3048 244.034 33.3048C246.999 33.3048 248.913 31.9161 248.913 29.8894C248.913 28.0504 247.224 27.1872 244.259 26.4366L241.294 25.7235C236.715 24.5975 233.9 22.3082 233.9 18.3299C233.9 13.3758 238.254 10.1105 244.184 10.1105C250.189 10.1105 254.167 13.4508 254.242 18.2548H248.838Z" fill="white"/>
<path d="M12.5181 13.4283C12.5183 8.02301 16.9578 3.69395 22.3675 3.69395C24.3712 3.69396 26.2427 4.28855 27.803 5.31066C28.3051 5.6396 29.0392 6.31674 29.7035 6.95332C30.431 7.65043 31.2733 8.4931 32.0662 9.29974C32.8612 10.1086 33.6153 10.8917 34.171 11.471C34.449 11.7609 34.6781 12.0009 34.8374 12.1683C34.9168 12.2517 34.9797 12.3164 35.0223 12.3613C35.0435 12.3836 35.0598 12.4014 35.0709 12.4132C35.0754 12.4179 35.0795 12.4216 35.0823 12.4245L35.4163 12.7261C35.579 12.8631 35.7886 13.0302 36.0277 13.2126C36.4365 13.5245 36.7837 13.7602 36.9649 13.871C37.3287 14.0111 37.9903 14.2013 38.7552 14.2585C39.5965 14.3214 40.3875 14.2154 41.0092 13.8969L41.121 13.8402L41.2378 13.7964C41.475 13.7087 42.7118 13.0814 43.9653 11.7013C44.7436 10.8442 46.0709 10.7802 46.9279 11.5586C47.7846 12.337 47.8472 13.6627 47.069 14.5196C45.4883 16.26 43.8018 17.269 42.8513 17.6606C41.3393 18.4145 39.7365 18.5355 38.4438 18.4389C37.1304 18.3408 35.9623 18.0073 35.2185 17.6898L35.1293 17.6525L35.045 17.6055C34.592 17.3603 33.9782 16.9241 33.4834 16.5466C32.989 16.1693 32.4055 15.6928 32.05 15.3207L32.0418 15.3125L32.0402 15.3093C32.0376 15.3066 32.0324 15.3034 32.0272 15.298C32.0168 15.2869 32.0024 15.2693 31.9818 15.2477C31.9406 15.2042 31.8783 15.14 31.8002 15.058C31.644 14.8939 31.4187 14.6589 31.1451 14.3737C30.5969 13.8021 29.8551 13.0324 29.076 12.2397C28.2948 11.4449 27.4859 10.6356 26.8025 9.9808C26.4602 9.6528 26.159 9.37381 25.9155 9.15866C25.7939 9.05123 25.6952 8.96551 25.6172 8.90246C25.5377 8.83826 25.5034 8.81536 25.5053 8.81651C24.61 8.23023 23.5337 7.88736 22.3675 7.88735C19.2141 7.88735 16.7117 10.3972 16.7115 13.4283C16.7115 15.2338 17.5912 16.8474 18.9784 17.8665C19.9113 18.552 20.1114 19.8637 19.426 20.7967C18.7404 21.7294 17.4287 21.9297 16.4958 21.2443C14.0927 19.4785 12.5181 16.6393 12.5181 13.4283Z" fill="white"/>
<path d="M44.6707 3.69395C50.3385 3.69429 55.3403 7.85595 55.3406 13.4639C55.3406 15.5146 54.649 17.407 53.4969 18.9578C53.1285 19.4536 52.3732 20.1758 51.6597 20.8324C50.8785 21.5512 49.9329 22.3831 49.0278 23.1675C48.1204 23.9539 47.2423 24.7014 46.5922 25.2512C46.2672 25.5261 45.9984 25.7519 45.8106 25.9095C45.717 25.9881 45.6437 26.0507 45.5933 26.0928C45.5682 26.1139 45.5481 26.1305 45.535 26.1414C45.5294 26.146 45.5253 26.15 45.522 26.1528L45.175 26.4917C45.0194 26.6546 44.8309 26.8624 44.6269 27.0982C44.2778 27.5015 44.0158 27.8435 43.8923 28.0208C43.7426 28.3678 43.5412 28.9921 43.4804 29.7089C43.4135 30.4996 43.5264 31.2294 43.8631 31.8088L43.9312 31.9272L43.9831 32.0521C43.9831 32.0521 43.9868 32.0604 43.9945 32.0764C44.0019 32.092 44.0129 32.113 44.0269 32.1396C44.0557 32.1942 44.0954 32.267 44.1485 32.3537C44.2549 32.5274 44.405 32.7486 44.6026 33.0023C44.9982 33.5104 45.5703 34.1277 46.3376 34.7423C47.2413 35.4659 47.3873 36.7866 46.6636 37.6903C45.94 38.5934 44.6207 38.7393 43.7172 38.0162C41.7883 36.4716 40.6491 34.8068 40.1967 33.8407C39.3327 32.3097 39.1914 30.6733 39.3032 29.3538C39.4164 28.0194 39.7987 26.838 40.1627 26.0863L40.2081 25.9922L40.2632 25.9031C40.5413 25.45 41.0346 24.8422 41.4567 24.3545C41.8815 23.8636 42.4112 23.2901 42.8204 22.9453L42.8286 22.9388C42.8293 22.9382 42.8319 22.9369 42.8334 22.9356C42.8365 22.933 42.8406 22.929 42.8464 22.9242C42.8588 22.9138 42.8771 22.8976 42.9015 22.8772C42.9504 22.8363 43.0234 22.7762 43.1156 22.6988C43.2999 22.5441 43.5653 22.3213 43.8858 22.0502C44.5276 21.5074 45.3908 20.772 46.2809 20.0005C47.1737 19.2267 48.0838 18.4243 48.8203 17.7465C49.1892 17.4071 49.5035 17.1082 49.7462 16.866C49.8674 16.7451 49.9634 16.6456 50.0348 16.5676C50.0998 16.4968 50.128 16.4624 50.1321 16.4574C50.7858 15.5775 51.1472 14.5512 51.1472 13.4639C51.1469 10.5965 48.4723 7.88767 44.6707 7.88735C42.4535 7.88735 40.5521 8.84388 39.4022 10.224C38.661 11.1128 37.3401 11.2324 36.4509 10.4916C35.5616 9.75063 35.4411 8.42978 36.1817 7.54033C38.158 5.16849 41.2563 3.69395 44.6707 3.69395Z" fill="white"/>
<path d="M55.3406 36.3866C55.3404 41.8862 50.6292 46.1209 45.1036 46.1209C43.0429 46.1209 41.1114 45.5397 39.493 44.5301C38.9754 44.2072 38.2115 43.5345 37.5114 42.8956C36.7483 42.1991 35.8643 41.3572 35.032 40.5508C34.1974 39.7421 33.4036 38.9604 32.8202 38.3811C32.5283 38.0912 32.2886 37.8512 32.1213 37.6838C32.0378 37.6003 31.973 37.5341 31.9283 37.4892L31.8651 37.426L31.5083 37.1211C31.336 36.983 31.1159 36.8141 30.8646 36.6314C30.4263 36.3129 30.0488 36.0719 29.8543 35.9601C29.4588 35.8138 28.7416 35.6171 27.9117 35.5579C27.003 35.4933 26.1337 35.5999 25.4453 35.9358L25.3366 35.9893L25.2231 36.0298C24.9463 36.1272 23.6326 36.7663 22.3124 38.1508C21.5136 38.9884 20.1876 39.0204 19.3498 38.2222C18.5119 37.4233 18.4796 36.0958 19.2784 35.2579C20.9494 33.5056 22.7244 32.5043 23.6923 32.1299C25.2406 31.3986 26.8799 31.2814 28.2084 31.3759C29.5641 31.4723 30.7693 31.7994 31.5343 32.1105L31.6218 32.1461L31.7045 32.1883C32.1706 32.4285 32.8095 32.8613 33.3294 33.2391C33.8473 33.6155 34.4564 34.0883 34.8261 34.4569L34.8326 34.465L35.0872 34.7196C35.2512 34.8837 35.4871 35.1199 35.7747 35.4055C36.3505 35.9773 37.1308 36.7464 37.9492 37.5395C38.7698 38.3345 39.6196 39.1445 40.3378 39.8C40.6974 40.1281 41.0136 40.4078 41.2702 40.6237C41.3983 40.7315 41.5032 40.8175 41.5864 40.8816C41.6671 40.9436 41.7063 40.969 41.7113 40.9724C42.6713 41.5713 43.8358 41.9275 45.1036 41.9275C48.5693 41.9275 51.147 39.3232 51.1472 36.3866C51.1472 34.6251 50.2461 33.015 48.7635 31.9775C47.8149 31.3137 47.5841 30.0056 48.2479 29.057C48.9116 28.1089 50.2183 27.8781 51.1667 28.5414C53.664 30.2888 55.3406 33.1314 55.3406 36.3866Z" fill="white"/>
<path d="M22.3318 44.5901C16.9235 44.5901 12.5183 40.2267 12.5181 34.8201C12.5181 32.8229 13.1219 30.9594 14.1575 29.4105C14.4909 28.9119 15.1771 28.1864 15.8196 27.5295C16.5239 26.8094 17.3753 25.9744 18.1903 25.1896C19.0075 24.4026 19.799 23.6559 20.3843 23.1058C20.6771 22.8307 20.919 22.6036 21.0881 22.4459C21.1723 22.3673 21.239 22.3064 21.2843 22.2642C21.3069 22.2432 21.3243 22.2266 21.3362 22.2156C21.341 22.2111 21.3446 22.207 21.3475 22.2042L21.6508 21.8734C21.7891 21.7125 21.9595 21.5068 22.1437 21.2702C22.4604 20.8636 22.6966 20.5181 22.807 20.3411C22.9465 19.9835 23.1345 19.3379 23.1913 18.593C23.2541 17.7689 23.1476 16.9994 22.8313 16.3941L22.7729 16.2806L22.7275 16.1623C22.6419 15.9353 22.0118 14.7122 20.6162 13.4704C19.7516 12.7008 19.6748 11.3759 20.4443 10.5111C21.214 9.64658 22.5389 9.56972 23.4037 10.3392C25.1664 11.9077 26.1895 13.5847 26.5852 14.5309C27.3469 16.0342 27.4697 17.6278 27.3717 18.9124C27.272 20.2197 26.9339 21.381 26.6112 22.1215L26.5723 22.2107L26.5236 22.2967C26.2748 22.7472 25.8329 23.3558 25.4518 23.8453C25.0704 24.3349 24.5889 24.9138 24.2129 25.2658L24.2048 25.2723L24.2048 25.2739L24.2015 25.2755C24.1988 25.278 24.1941 25.2817 24.1885 25.2869C24.1775 25.2972 24.1616 25.3137 24.1399 25.3339C24.096 25.3747 24.0298 25.4349 23.9469 25.5123C23.7811 25.6669 23.5429 25.8899 23.2545 26.1609C22.677 26.7036 21.9003 27.4393 21.0994 28.2106C20.2967 28.9836 19.4794 29.7834 18.8179 30.4597C18.4865 30.7985 18.2033 31.096 17.986 31.337C17.8775 31.4572 17.7934 31.5567 17.7298 31.6337C17.6751 31.7001 17.6492 31.7334 17.6439 31.7407C17.0542 32.6226 16.7115 33.6794 16.7115 34.8201C16.7117 37.8893 19.217 40.3967 22.3318 40.3967C24.1808 40.3965 25.8185 39.5127 26.8447 38.1443C27.5394 37.2187 28.8521 37.0317 29.7781 37.726C30.7044 38.4206 30.8927 39.7348 30.1981 40.661C28.4108 43.044 25.5506 44.5899 22.3318 44.5901Z" fill="white"/>
</svg>
