<svg width="162" height="30" viewBox="0 0 162 30" fill="none" xmlns="http://www.w3.org/2000/svg">
<path d="M40.4304 22.4219V10.1488H43.7755V22.4219H40.4304ZM42.103 8.54403C41.0859 8.54403 40.2722 7.77555 40.2722 6.84885C40.2722 5.89955 41.0859 5.13107 42.103 5.13107C43.0975 5.13107 43.9111 5.89955 43.9111 6.84885C43.9111 7.77555 43.0975 8.54403 42.103 8.54403ZM48.7942 15.3247V22.4219H45.449V10.1488H48.6359V12.296H48.7716C49.3366 10.8721 50.6476 9.99058 52.4557 9.99058C55.0098 9.99058 56.705 11.731 56.6824 14.6015V22.4219H53.3598V15.1891C53.3598 13.6748 52.5236 12.7707 51.1448 12.7707C49.7435 12.7707 48.7942 13.6974 48.7942 15.3247ZM64.8201 10.1488V12.6577H62.5147V18.6473C62.5147 19.6192 62.9893 19.8678 63.6674 19.8904C64.0065 19.8904 64.5941 19.8678 65.001 19.8226V22.4671C64.6393 22.5349 64.0517 22.5801 63.2154 22.5801C60.7969 22.5801 59.1469 21.4952 59.1695 19.1219V12.6577H57.4744V10.1488H59.1695V7.21049H62.5147V10.1488H64.8201ZM71.4209 22.6705C67.6689 22.6705 65.3635 20.2294 65.3635 16.3418C65.3635 12.5446 67.6915 9.99058 71.2853 9.99058C74.5175 9.99058 77.0489 12.0248 77.0489 16.2062V17.1555H68.6634C68.6634 19.0089 69.771 20.1616 71.4887 20.1616C72.6189 20.1616 73.4325 19.6644 73.7716 18.9185H76.9585C76.4839 21.1787 74.4496 22.6705 71.4209 22.6705ZM68.6634 15.0535H73.8846C73.8846 13.5618 72.8449 12.4994 71.3531 12.4994C69.8162 12.4994 68.72 13.6409 68.6634 15.0535ZM81.5703 6.05777V22.4219H78.2251V6.05777H81.5703ZM86.5889 6.05777V22.4219H83.2438V6.05777H86.5889ZM88.2624 22.4219V10.1488H91.6076V22.4219H88.2624ZM89.935 8.54403C88.9179 8.54403 88.1042 7.77555 88.1042 6.84885C88.1042 5.89955 88.9179 5.13107 89.935 5.13107C90.9295 5.13107 91.7432 5.89955 91.7432 6.84885C91.7432 7.77555 90.9295 8.54403 89.935 8.54403ZM99.1124 22.4219H93.3488V6.05777H99.1802C104.108 6.05777 107.114 9.13169 107.114 14.2172C107.114 19.348 104.108 22.4219 99.1124 22.4219ZM96.7392 19.5062H98.9768C102.096 19.5062 103.723 17.8788 103.723 14.2172C103.723 10.5782 102.096 8.97347 98.9994 8.97347H96.7392V19.5062ZM123.637 14.2398C123.637 19.574 120.314 22.6479 115.997 22.6479C111.635 22.6479 108.335 19.5514 108.335 14.2398C108.335 8.90566 111.635 5.83174 115.997 5.83174C120.314 5.83174 123.637 8.90566 123.637 14.2398ZM120.179 14.2398C120.179 10.7365 118.529 8.83786 115.997 8.83786C113.466 8.83786 111.793 10.7365 111.793 14.2398C111.793 17.7432 113.466 19.6418 115.997 19.6418C118.529 19.6418 120.179 17.7432 120.179 14.2398ZM136.092 11.7536C135.82 9.94537 134.419 8.83786 132.521 8.83786C129.966 8.83786 128.294 10.8043 128.294 14.2398C128.294 17.7658 129.989 19.6418 132.498 19.6418C134.374 19.6418 135.753 18.6021 136.092 16.8391L139.527 16.8617C139.143 19.8904 136.612 22.6479 132.453 22.6479C128.068 22.6479 124.836 19.574 124.836 14.2398C124.836 8.90566 128.136 5.83174 132.453 5.83174C136.227 5.83174 139.075 8.00157 139.527 11.7536H136.092ZM149.857 10.7365C149.722 9.44812 148.682 8.67964 147.032 8.67964C145.314 8.67964 144.365 9.47072 144.342 10.5556C144.32 11.731 145.563 12.2734 146.964 12.5898L148.434 12.9515C151.236 13.5844 153.338 15.0083 153.338 17.7432C153.338 20.7493 150.988 22.6479 147.01 22.6479C143.054 22.6479 140.523 20.8171 140.432 17.3137H143.732C143.845 18.9637 145.156 19.8 146.964 19.8C148.75 19.8 149.903 18.9637 149.903 17.7432C149.903 16.6357 148.886 16.1158 147.1 15.6638L145.314 15.2343C142.557 14.5563 140.862 13.1775 140.862 10.7817C140.862 7.79815 143.484 5.83174 147.055 5.83174C150.671 5.83174 153.067 7.84335 153.112 10.7365H149.857Z" fill="black"/>
<path d="M7.35303 8.08887C7.35315 4.83365 10.0268 2.22656 13.2847 2.22656C14.4913 2.22657 15.6184 2.58464 16.5581 3.2002C16.8605 3.39829 17.3026 3.80608 17.7026 4.18945C18.1407 4.60927 18.648 5.11675 19.1255 5.60254C19.6043 6.08963 20.0584 6.56126 20.3931 6.91016C20.5605 7.08474 20.6985 7.22927 20.7944 7.33008C20.8422 7.38028 20.8801 7.41928 20.9058 7.44629C20.9185 7.45973 20.9284 7.47048 20.9351 7.47754C20.9377 7.48038 20.9402 7.48263 20.9419 7.48438L21.1431 7.66602C21.241 7.74851 21.3673 7.84914 21.5112 7.95898C21.7574 8.14684 21.9665 8.28874 22.0757 8.35547C22.2947 8.43989 22.6932 8.5544 23.1538 8.58887C23.6605 8.62672 24.1369 8.56288 24.5112 8.37109L24.5786 8.33691L24.6489 8.31055C24.7918 8.25776 25.5366 7.87996 26.2915 7.04883C26.7603 6.53268 27.5595 6.49414 28.0757 6.96289C28.5916 7.43167 28.6293 8.23002 28.1606 8.74609C27.2087 9.79424 26.1931 10.4019 25.6206 10.6377C24.7101 11.0917 23.7448 11.1646 22.9663 11.1064C22.1754 11.0474 21.4719 10.8465 21.0239 10.6553L20.9702 10.6328L20.9194 10.6045C20.6466 10.4568 20.277 10.1942 19.979 9.9668C19.6812 9.73959 19.3298 9.45264 19.1157 9.22852L19.1108 9.22363L19.1099 9.22168C19.1083 9.22004 19.1052 9.21814 19.1021 9.21484C19.0958 9.2082 19.0871 9.19758 19.0747 9.18457C19.0499 9.1584 19.0124 9.11973 18.9653 9.07031C18.8712 8.97148 18.7356 8.82997 18.5708 8.6582C18.2406 8.31398 17.7939 7.85044 17.3247 7.37305C16.8543 6.89442 16.3671 6.40706 15.9556 6.0127C15.7494 5.81516 15.568 5.64715 15.4214 5.51758C15.3482 5.45287 15.2887 5.40125 15.2417 5.36328C15.1939 5.32462 15.1732 5.31083 15.1743 5.31152C14.6351 4.95845 13.987 4.75196 13.2847 4.75195C11.3856 4.75195 9.87855 6.26345 9.87842 8.08887C9.87842 9.17621 10.4082 10.1479 11.2437 10.7617C11.8055 11.1745 11.926 11.9645 11.5132 12.5264C11.1003 13.0881 10.3103 13.2087 9.74854 12.7959C8.30132 11.7325 7.35303 10.0226 7.35303 8.08887Z" fill="black"/>
<path d="M26.7163 2.22656C30.1297 2.22676 33.1419 4.73305 33.1421 8.11035C33.1421 9.34529 32.7256 10.485 32.0317 11.4189C31.8099 11.7175 31.355 12.1524 30.9253 12.5479C30.4549 12.9807 29.8854 13.4817 29.3403 13.9541C28.7939 14.4277 28.265 14.8779 27.8735 15.209C27.6778 15.3745 27.5159 15.5106 27.4028 15.6055C27.3464 15.6528 27.3023 15.6905 27.272 15.7158C27.2568 15.7285 27.2447 15.7385 27.2368 15.7451C27.2335 15.7479 27.231 15.7503 27.229 15.752L27.02 15.9561C26.9263 16.0541 26.8128 16.1793 26.6899 16.3213C26.4797 16.5642 26.3219 16.7701 26.2476 16.877C26.1574 17.0859 26.0361 17.4619 25.9995 17.8936C25.9592 18.3697 26.0272 18.8092 26.23 19.1582L26.271 19.2295L26.3022 19.3047C26.3022 19.3047 26.3045 19.3097 26.3091 19.3193C26.3136 19.3288 26.3202 19.3414 26.3286 19.3574C26.3459 19.3903 26.3699 19.4341 26.4019 19.4863C26.4659 19.5909 26.5563 19.7242 26.6753 19.877C26.9135 20.1829 27.2581 20.5547 27.7202 20.9248C28.2644 21.3606 28.3523 22.156 27.9165 22.7002C27.4807 23.2441 26.6862 23.3319 26.1421 22.8965C24.9804 21.9662 24.2944 20.9637 24.022 20.3818C23.5016 19.4598 23.4166 18.4743 23.4839 17.6797C23.552 16.8761 23.7823 16.1646 24.0015 15.7119L24.0288 15.6553L24.062 15.6016C24.2295 15.3287 24.5265 14.9627 24.7808 14.6689C25.0366 14.3733 25.3556 14.028 25.6021 13.8203L25.6069 13.8164C25.6074 13.816 25.6089 13.8152 25.6099 13.8145C25.6117 13.8129 25.6142 13.8105 25.6177 13.8076C25.6252 13.8014 25.6362 13.7916 25.6509 13.7793C25.6803 13.7547 25.7243 13.7185 25.7798 13.6719C25.8908 13.5787 26.0506 13.4445 26.2437 13.2812C26.6302 12.9543 27.15 12.5115 27.686 12.0469C28.2237 11.5809 28.7718 11.0976 29.2153 10.6895C29.4375 10.485 29.6268 10.3051 29.7729 10.1592C29.8459 10.0864 29.9037 10.0265 29.9468 9.97949C29.9859 9.93682 30.0029 9.91613 30.0054 9.91309C30.399 9.38317 30.6167 8.76511 30.6167 8.11035C30.6165 6.38351 29.0058 4.75215 26.7163 4.75195C25.3811 4.75195 24.236 5.328 23.5435 6.15918C23.0971 6.69442 22.3016 6.76647 21.7661 6.32031C21.2306 5.87408 21.158 5.07862 21.604 4.54297C22.7942 3.11458 24.6601 2.22656 26.7163 2.22656Z" fill="black"/>
<path d="M33.1421 21.915C33.142 25.2271 30.3047 27.7773 26.9771 27.7773C25.736 27.7773 24.5728 27.4273 23.5981 26.8193C23.2865 26.6249 22.8264 26.2198 22.4048 25.835C21.9452 25.4155 21.4129 24.9085 20.9116 24.4229C20.409 23.9358 19.9309 23.4651 19.5796 23.1162C19.4038 22.9417 19.2594 22.7971 19.1587 22.6963C19.1084 22.646 19.0694 22.6061 19.0425 22.5791L19.0044 22.541L18.7896 22.3574C18.6858 22.2742 18.5532 22.1725 18.4019 22.0625C18.1379 21.8707 17.9106 21.7256 17.7935 21.6582C17.5553 21.5701 17.1233 21.4516 16.6235 21.416C16.0763 21.3771 15.5528 21.4413 15.1382 21.6436L15.0728 21.6758L15.0044 21.7002C14.8377 21.7589 14.0466 22.1437 13.2515 22.9775C12.7704 23.482 11.9719 23.5012 11.4673 23.0205C10.9627 22.5394 10.9432 21.7399 11.4243 21.2353C12.4306 20.1801 13.4996 19.577 14.0825 19.3516C15.0149 18.9112 16.0022 18.8405 16.8022 18.8975C17.6187 18.9556 18.3445 19.1525 18.8052 19.3398L18.8579 19.3613L18.9077 19.3867C19.1884 19.5314 19.5732 19.792 19.8862 20.0195C20.1982 20.2462 20.565 20.531 20.7876 20.7529L20.7915 20.7578L20.9448 20.9111C21.0436 21.01 21.1857 21.1522 21.3589 21.3242C21.7057 21.6686 22.1756 22.1318 22.6685 22.6094C23.1626 23.0882 23.6744 23.5759 24.1069 23.9707C24.3235 24.1683 24.5139 24.3367 24.6685 24.4668C24.7456 24.5317 24.8088 24.5835 24.8589 24.6221C24.9075 24.6595 24.931 24.6747 24.9341 24.6768C25.5123 25.0375 26.2135 25.252 26.9771 25.252C29.0642 25.2519 30.6166 23.6836 30.6167 21.915C30.6167 20.8542 30.074 19.8846 29.1812 19.2598C28.6099 18.86 28.4709 18.0722 28.8706 17.501C29.2703 16.93 30.0573 16.791 30.6284 17.1904C32.1324 18.2428 33.1421 19.9547 33.1421 21.915Z" fill="black"/>
<path d="M13.2632 26.8555C10.0061 26.8555 7.35319 24.2277 7.35303 20.9717C7.35303 19.7689 7.71667 18.6467 8.34033 17.7139C8.5411 17.4136 8.95438 16.9767 9.34131 16.5811C9.76548 16.1474 10.2782 15.6446 10.769 15.1719C11.2612 14.6979 11.7378 14.2482 12.0903 13.917C12.2667 13.7513 12.4123 13.6145 12.5142 13.5195C12.5649 13.4722 12.605 13.4355 12.6323 13.4102C12.6459 13.3975 12.6564 13.3875 12.6636 13.3809C12.6665 13.3782 12.6686 13.3757 12.6704 13.374L12.853 13.1748C12.9363 13.0779 13.039 12.954 13.1499 12.8115C13.3406 12.5667 13.4829 12.3586 13.5493 12.252C13.6334 12.0366 13.7466 11.6478 13.7808 11.1992C13.8186 10.7029 13.7545 10.2395 13.564 9.875L13.5288 9.80664L13.5015 9.73535C13.4499 9.59866 13.0705 8.86209 12.23 8.11426C11.7093 7.65076 11.663 6.85285 12.1265 6.33203C12.59 5.81142 13.3879 5.76513 13.9087 6.22852C14.9702 7.17311 15.5864 8.1831 15.8247 8.75293C16.2834 9.65821 16.3573 10.618 16.2983 11.3916C16.2383 12.1789 16.0347 12.8782 15.8403 13.3242L15.8169 13.3779L15.7876 13.4297C15.6378 13.701 15.3717 14.0675 15.1421 14.3623C14.9124 14.6572 14.6224 15.0058 14.396 15.2178L14.3911 15.2217L14.3911 15.2227L14.3892 15.2236C14.3875 15.2252 14.3847 15.2274 14.3813 15.2305C14.3747 15.2367 14.3651 15.2466 14.3521 15.2588C14.3256 15.2834 14.2858 15.3196 14.2358 15.3662C14.136 15.4594 13.9925 15.5936 13.8188 15.7568C13.471 16.0837 13.0033 16.5267 12.521 16.9912C12.0375 17.4568 11.5453 17.9384 11.147 18.3457C10.9474 18.5498 10.7769 18.7289 10.646 18.874C10.5807 18.9465 10.53 19.0063 10.4917 19.0527C10.4587 19.0927 10.4432 19.1128 10.4399 19.1172C10.0848 19.6483 9.87842 20.2847 9.87842 20.9717C9.87858 22.82 11.3873 24.3301 13.2632 24.3301C14.3767 24.33 15.363 23.7977 15.981 22.9736C16.3993 22.4162 17.1899 22.3036 17.7476 22.7217C18.3054 23.14 18.4188 23.9314 18.0005 24.4893C16.9241 25.9244 15.2016 26.8554 13.2632 26.8555Z" fill="black"/>
</svg>
