<svg width="44" height="44" viewBox="0 0 44 44" fill="none" xmlns="http://www.w3.org/2000/svg">
<g clip-path="url(#clip0_16_1330)">
<path d="M32 13.0002H12C11.4477 13.0002 11 13.4479 11 14.0002C11 14.5524 11.4477 15.0002 12 15.0002H32C32.5523 15.0002 33 14.5524 33 14.0002C33 13.4479 32.5523 13.0002 32 13.0002Z" fill="#111111"/>
<path d="M32 29.0002H12C11.4477 29.0002 11 29.4479 11 30.0002C11 30.5524 11.4477 31.0002 12 31.0002H32C32.5523 31.0002 33 30.5524 33 30.0002C33 29.4479 32.5523 29.0002 32 29.0002Z" fill="#111111"/>
<path d="M32 21.0002H12C11.4477 21.0002 11 21.4479 11 22.0002C11 22.5524 11.4477 23.0002 12 23.0002H32C32.5523 23.0002 33 22.5524 33 22.0002C33 21.4479 32.5523 21.0002 32 21.0002Z" fill="#111111"/>
</g>
<defs>
<clipPath id="clip0_16_1330">
<rect width="44" height="44" fill="white"/>
</clipPath>
</defs>
</svg>
