<svg width="24" height="24" viewBox="0 0 24 24" fill="none" xmlns="http://www.w3.org/2000/svg">
<path d="M19 6H5C4.44772 6 4 6.44772 4 7V18C4 18.5523 4.44772 19 5 19H19C19.5523 19 20 18.5523 20 18V7C20 6.44772 19.5523 6 19 6Z" stroke="#999999" stroke-width="1.5" stroke-linecap="round" stroke-linejoin="round"/>
<path d="M19 6H5C4.44772 6 4 6.44772 4 7V9C4 9.55228 4.44772 10 5 10H19C19.5523 10 20 9.55228 20 9V7C20 6.44772 19.5523 6 19 6Z" stroke="#999999" stroke-width="1.5" stroke-linecap="round" stroke-linejoin="round"/>
<path d="M7 4V6" stroke="#999999" stroke-width="1.5" stroke-linecap="round" stroke-linejoin="round"/>
<path d="M17 4V6" stroke="#999999" stroke-width="1.5" stroke-linecap="round" stroke-linejoin="round"/>
<rect x="7" y="12" width="2" height="1" fill="#999999"/>
<rect x="7" y="15" width="2" height="1" fill="#999999"/>
<rect x="11" y="12" width="2" height="1" fill="#999999"/>
<rect x="15" y="12" width="2" height="1" fill="#999999"/>
<rect x="11" y="15" width="2" height="1" fill="#999999"/>
<rect x="15" y="15" width="2" height="1" fill="#999999"/>
</svg>
