<svg width="20" height="20" viewBox="0 0 20 20" fill="none" xmlns="http://www.w3.org/2000/svg">
<path d="M8.5 14C11.5376 14 14 11.5376 14 8.5C14 5.46243 11.5376 3 8.5 3C5.46243 3 3 5.46243 3 8.5C3 11.5376 5.46243 14 8.5 14Z" stroke="white" stroke-width="2" stroke-miterlimit="10"/>
<path d="M16.2929 17.7071C16.6834 18.0976 17.3166 18.0976 17.7071 17.7071C18.0976 17.3166 18.0976 16.6834 17.7071 16.2929L17 17L16.2929 17.7071ZM12 12L11.2929 12.7071L16.2929 17.7071L17 17L17.7071 16.2929L12.7071 11.2929L12 12Z" fill="white"/>
</svg>
