<svg width="8" height="8" viewBox="0 0 8 8" fill="none" xmlns="http://www.w3.org/2000/svg">
<path d="M7.07627 0.134155L0.283051 6.91738C0.126726 7.07347 0.126726 7.32655 0.283051 7.48265C0.439376 7.63874 0.692828 7.63874 0.849153 7.48265L7.64238 0.699424C7.7987 0.543329 7.7987 0.290249 7.64238 0.134155C7.48605 -0.0219397 7.2326 -0.02194 7.07627 0.134155Z" fill="white"/>
<path d="M7.87628 7.06586L1.08305 0.282634C0.926729 0.12654 0.673277 0.12654 0.516952 0.282634C0.360627 0.438729 0.360627 0.691808 0.516952 0.847903L7.31017 7.63113C7.4665 7.78722 7.71995 7.78722 7.87628 7.63113C8.0326 7.47503 8.0326 7.22195 7.87628 7.06586Z" fill="white"/>
</svg>
