<svg width="24" height="24" viewBox="0 0 24 24" fill="none" xmlns="http://www.w3.org/2000/svg">
<path d="M12 6.5C14.2771 6.5 16.4058 7.31371 18.167 8.32324C19.926 9.33156 21.2897 10.5189 22.0273 11.2256C22.1899 11.3813 22.1899 11.6187 22.0273 11.7744C21.2897 12.4811 19.926 13.6684 18.167 14.6768C16.4058 15.6863 14.2771 16.5 12 16.5C9.72286 16.5 7.59416 15.6863 5.83301 14.6768C4.07401 13.6684 2.71031 12.4811 1.97266 11.7744C1.81013 11.6187 1.81014 11.3813 1.97266 11.2256C2.71031 10.5189 4.07401 9.33156 5.83301 8.32324C7.59416 7.31371 9.72286 6.5 12 6.5Z" stroke="#999999"/>
<circle cx="12" cy="11.5" r="3" stroke="#999999"/>
<path d="M18 5L5 19" stroke="#999999" stroke-linecap="round"/>
</svg>
