<svg width="24" height="24" viewBox="0 0 24 24" fill="none" xmlns="http://www.w3.org/2000/svg">
<path d="M12 6.75C14.2186 6.75 16.3042 7.54329 18.043 8.54004C19.7785 9.5349 21.1257 10.7081 21.8545 11.4062C21.8898 11.4401 21.8994 11.4736 21.8994 11.5C21.8994 11.5264 21.8898 11.5599 21.8545 11.5938C21.1257 12.2919 19.7785 13.4651 18.043 14.46C16.3042 15.4567 14.2186 16.25 12 16.25C9.78137 16.25 7.69585 15.4567 5.95703 14.46C4.22153 13.4651 2.87428 12.2919 2.14551 11.5938C2.11021 11.5599 2.10059 11.5264 2.10059 11.5C2.10059 11.4736 2.11021 11.4401 2.14551 11.4062C2.87428 10.7081 4.22153 9.5349 5.95703 8.54004C7.69585 7.54329 9.78137 6.75 12 6.75Z" stroke="#999999" stroke-width="1.5"/>
<circle cx="12" cy="11.5" r="2.75" stroke="#999999" stroke-width="1.5"/>
</svg>
