<svg width="44" height="44" viewBox="0 0 44 44" fill="none" xmlns="http://www.w3.org/2000/svg">
<g clip-path="url(#clip0_16_1614)">
<path d="M29.4999 12.8331L12.8333 29.4757C12.3731 29.9352 12.3731 30.6804 12.8333 31.1399C13.2936 31.5995 14.0398 31.5995 14.5 31.1399L31.1665 14.4973C31.6268 14.0377 31.6268 13.2926 31.1665 12.8331C30.7063 12.3735 29.9601 12.3735 29.4999 12.8331Z" fill="#111111"/>
<path d="M31.1666 29.5045L14.5001 12.8619C14.0398 12.4023 13.2937 12.4023 12.8334 12.8619C12.3732 13.3215 12.3732 14.0666 12.8334 14.5261L29.5 31.1688C29.9602 31.6283 30.7064 31.6283 31.1666 31.1688C31.6269 30.7092 31.6269 29.9641 31.1666 29.5045Z" fill="#111111"/>
</g>
<defs>
<clipPath id="clip0_16_1614">
<rect width="44" height="44" fill="white"/>
</clipPath>
</defs>
</svg>
