<svg width="685" height="715" viewBox="0 0 685 715" fill="none" xmlns="http://www.w3.org/2000/svg">
<path fill-rule="evenodd" clip-rule="evenodd" d="M530.5 1.19101C510.245 3.07601 483.882 15.616 460.304 34.58C455.23 38.661 445.294 47.851 438.225 55C431.155 62.15 424.811 68 424.127 68C423.442 68 423.131 68.404 423.436 68.897C423.741 69.39 422.065 71.978 419.711 74.647C411.493 83.967 402.311 95.63 389.517 113C336.891 184.45 323.988 200.068 301.827 219.141C289.364 229.868 266.714 243.108 256.586 245.586C254.001 246.219 253.756 246.084 254.424 244.4C254.837 243.355 258.467 233.26 262.489 221.966C280.613 171.078 290.433 146.162 300.956 124.368C310.341 104.929 316.528 94.212 332.084 70.447C346.956 47.727 348.587 42.083 340.707 40.605C338.386 40.169 333.836 41.026 325.598 43.45C293.406 52.923 279.432 54.177 210.283 53.799L155.5 53.5L142.302 56.259C83.391 68.573 41.247 104.893 28.891 154C26.76 162.468 26.503 165.672 26.527 183.5C26.554 203.362 26.576 203.564 29.742 212.703C35.565 229.51 40.276 237.549 49.868 247.046C64.566 261.597 80.344 268 101.5 268C116.25 268 126.494 265.002 130.905 259.393C135.258 253.86 131.987 249.636 122.5 248.538C106.492 246.686 96.798 242.067 87.5 231.865C76.2 219.465 71.148 200.785 73.127 178.719C74.162 167.174 76.306 159.455 81.526 148.485C100.394 108.833 143.606 84.116 201.5 79.862C215.159 78.858 255.263 79.338 265.75 80.631C268.637 80.987 271 81.672 271 82.154C271 82.635 267.676 89.66 263.613 97.765C255.521 113.906 254.08 117.005 246.768 134C240.304 149.025 219.584 201.751 211.4 224C207.86 233.625 202.98 246.675 200.556 253C198.132 259.325 195.827 265.625 195.433 267C195.04 268.375 191.816 276.925 188.269 286C184.721 295.075 179.134 309.7 175.852 318.5C153.195 379.254 137.112 408.147 113.027 431.365C95.69 448.077 81.552 455.122 59.441 458.064C45.069 459.977 25.801 456.344 13.739 449.448C9.06401 446.775 5.11901 446.333 3.05301 448.25C1.96401 449.261 1.86001 449.232 2.50801 448.095C3.04501 447.154 2.92801 446.926 2.15501 447.405C0.285008 448.56 0.721008 458.631 2.75001 461.145C11.127 471.524 18.004 476.42 29.879 480.459C40.827 484.183 50.143 485.283 66.111 484.74C86.46 484.048 101.41 480.057 119.695 470.437C151.545 453.68 179.622 422.687 201.706 379.908C211.267 361.388 220.256 339.971 241.536 285C244.624 277.025 247.877 269.938 248.766 269.25C250.977 267.54 262.071 267.693 269.913 269.541C278.882 271.655 285.241 275.414 291.76 282.452C304.13 295.808 309.746 315.43 314.955 363.5C318.856 399.492 322.656 416.395 330.485 432.577C336.373 444.747 342.993 451.473 354.737 457.215L363.5 461.5H378.5C392.115 461.5 393.886 461.294 397.684 459.263C402.157 456.872 405 453.609 405 450.865C405 449.933 402.164 447.152 398.671 444.659C381.78 432.606 375.515 411.849 371.46 354.5C370.643 342.95 369.281 329 368.434 323.5C363.078 288.735 351.659 267.016 332.868 255.852C325.657 251.568 315.706 248 310.97 248C306.821 248 306.392 246.243 310.051 244.241C316.78 240.558 332.892 229.392 341.62 222.363C363.362 204.852 380.398 186.825 418.511 141C472.307 76.319 489.335 59.548 519.124 41.914C537.419 31.084 557.061 31.333 566.882 42.519C571.133 47.36 572.976 51.767 574.115 59.81C575.311 68.253 574.082 75.258 569.073 88.549C566.827 94.511 565.232 100.156 565.53 101.095C566.68 104.719 573.644 104.237 580.392 100.067C589.003 94.745 601.286 77.653 605.42 65.241C609.942 51.663 608.749 36.013 602.423 25.907C596.668 16.714 580.007 5.78801 567 2.67701C559.364 0.850011 541.83 0.136011 530.5 1.19101ZM537 122.482C524.696 126.046 517.764 129.575 503.5 139.539C474.938 159.491 444 197.349 444 212.348C444 216.499 444.309 217.108 447.155 218.58C450.733 220.43 455.83 219.996 459.609 217.52C460.928 216.656 465.756 210.898 470.337 204.725C488.024 180.892 503.292 166.41 519.153 158.423C527.165 154.388 534.647 152.916 535.524 155.202C536.195 156.95 533.904 164.04 522.987 194C518.477 206.375 511.502 225.95 507.486 237.5C503.469 249.05 496.947 267.275 492.99 278C489.034 288.725 482.744 305.825 479.013 316C475.282 326.175 471.532 336.3 470.68 338.5C469.828 340.7 467.24 347.675 464.929 354C462.617 360.325 459.697 368.2 458.439 371.5C457.181 374.8 453.466 384.7 450.185 393.5C435.931 431.723 420.629 472.033 417.926 478.481C416.317 482.321 415 485.978 415 486.609C415 487.239 414.387 488.264 413.637 488.886C412.304 489.993 410.146 489.768 376.5 485.013C363.443 483.168 326.574 480.883 310.5 480.924C280.619 480.999 251.499 485.035 229.166 492.197C215.759 496.496 195.492 506.376 183 514.701C149.137 537.268 127.498 566.695 121.495 598.34C119.763 607.469 119.525 627.953 121.051 636.566C127.088 670.648 150.012 696.073 186.225 708.848C201.762 714.329 208.838 715.138 237.682 714.731C259.748 714.42 264.754 714.06 272.13 712.253C296.641 706.25 320.205 695.535 340.5 681.165C351.003 673.728 373.612 651.107 383.214 638.43C398.412 618.363 416.094 588.588 436.323 549C443.341 535.265 447.92 527.392 449.001 527.201C450.697 526.9 475.355 534.821 505.712 545.417C532.935 554.919 557.706 561.415 574.254 563.39C594.006 565.747 609.121 561.734 622 550.712C626.547 546.821 631 540.286 631 537.505C631 532.992 628.487 532.165 611.476 531.087C576.97 528.9 537.476 521.063 490 506.983C484.225 505.27 475.45 502.703 470.5 501.279C465.55 499.854 461.139 498.375 460.698 497.992C460.256 497.609 462.172 491.491 464.955 484.398C474.296 460.584 494.608 406.467 513.711 354.5C516.744 346.25 520.326 336.575 521.671 333C523.017 329.425 528.603 313.967 534.085 298.649C539.568 283.331 545.343 267.356 546.92 263.149C559.779 228.835 572.135 193.03 576.649 177C581.096 161.209 582.314 144.73 579.567 137.536C577.31 131.625 569.773 124.877 562.98 122.683C556.768 120.676 543.586 120.575 537 122.482ZM641.703 122.442C632.665 125.666 627.151 131.101 622.327 141.542C619.887 146.822 619.57 148.696 619.537 158.014C619.502 167.901 619.695 168.923 622.767 175.17C625.414 180.554 627.009 182.439 631.183 185.117C635.855 188.116 637.175 188.458 645.416 188.806C652.945 189.124 655.49 188.817 660.285 187.01C668.399 183.952 677.068 175.719 681.203 167.142C684.106 161.121 684.408 159.612 684.431 151C684.453 142.967 684.096 140.805 682.122 137C676.303 125.782 667.733 120.969 653.712 121.044C649.196 121.068 643.791 121.697 641.703 122.442ZM592.655 229.978C586.642 231.074 583.996 233.348 584.012 237.405C584.022 240.15 584.701 240.872 590.011 243.789C604.522 251.759 603.769 260.17 583.541 316C576.059 336.654 573.791 342.993 565.116 367.5C556.322 392.345 552.67 402.3 548.242 413.5C542.014 429.255 540.641 435.561 541.221 445.738C542.283 464.366 551.966 473.869 572.183 476.126C595.667 478.748 616.511 468.656 643.554 441.571C653.39 431.719 669.493 411.743 673.015 405.024C676.765 397.868 675.86 391.567 670.926 390.484C666.608 389.535 664.085 391.499 652.274 405C629.222 431.349 610.679 445.492 600.092 444.797C596.214 444.542 595.24 444.014 593.283 441.102C590.454 436.892 590.339 431.031 592.906 422C594.471 416.497 612.635 366.646 615.861 359C616.441 357.625 619.253 350.2 622.11 342.5C628.184 326.128 634.19 310.272 643.509 286C653.165 260.853 655 254.784 655 247.997C655 242.817 654.616 241.632 651.953 238.6C648.728 234.926 643.691 232.844 633.796 231.094C625.719 229.665 598.429 228.925 592.655 229.978ZM363 505.569C376.862 507.047 402.067 510.733 402.709 511.375C403.114 511.781 387.662 545.723 381.027 559C366.42 588.232 346.236 621.695 334.049 636.887C325.53 647.507 310.821 662.002 301.5 668.961C291.753 676.239 274.51 684.472 262.5 687.581C249.107 691.049 230.117 691.909 218 689.597C207.717 687.635 195.656 682.065 187.838 675.667C164.225 656.343 158.435 613.076 175.015 579.849C189.336 551.149 213.266 530.228 246.5 517.351C265.638 509.936 286.265 505.389 306.5 504.125C321.517 503.187 346.705 503.83 363 505.569Z" fill="black"/>
</svg>
